<?xml version="1.0" encoding="UTF-8" standalone="no"?>
<svg
   id="vector"
   width="108"
   height="108"
   viewBox="0 0 41.327 41.181"
   version="1.1"
   sodipodi:docname="icon_dark.svg"
   inkscape:version="1.3.2 (091e20e, 2023-11-25)"
   inkscape:export-filename="../../../../Users/baptiste.candellier/Downloads/dark.png"
   inkscape:export-xdpi="910.22223"
   inkscape:export-ydpi="910.22223"
   xmlns:inkscape="http://www.inkscape.org/namespaces/inkscape"
   xmlns:sodipodi="http://sodipodi.sourceforge.net/DTD/sodipodi-0.dtd"
   xmlns:xlink="http://www.w3.org/1999/xlink"
   xmlns="http://www.w3.org/2000/svg"
   xmlns:svg="http://www.w3.org/2000/svg">
  <defs
     id="defs6">
    <linearGradient
       id="linearGradient935">
      <stop
         style="stop-color:#ff14fb;stop-opacity:1;"
         offset="0"
         id="stop939" />
      <stop
         style="stop-color:#6f51e1;stop-opacity:1;"
         offset="1"
         id="stop941" />
    </linearGradient>
    <linearGradient
       inkscape:collect="always"
       xlink:href="#linearGradient935"
       id="linearGradient937"
       x1="2.7115021e-09"
       y1="20.678057"
       x2="41.502113"
       y2="20.678057"
       gradientUnits="userSpaceOnUse"
       gradientTransform="matrix(0.68174244,0,0,0.99578062,6.4436223,-41.25431)" />
    <mask
       maskUnits="userSpaceOnUse"
       id="mask1">
      <path
         fill="#ffffff"
         d="m 9.1368107,-20.812528 c 0,1.595563 0.2958987,3.081199 0.8876963,4.456908 0.591797,1.375709 1.401119,2.586527 2.426368,3.632453 1.025249,1.045927 2.224838,1.863916 3.595568,2.452351 1.37073,0.5884345 2.834228,0.8826521 4.393694,0.8826521 0.927682,0 1.829773,-0.093762 2.707872,-0.284518 0.878099,-0.1891399 1.730607,-0.4833571 2.559123,-0.8826521 l 6.836057,1.9738429 -1.95293,-6.9092589 c 0.395064,-0.837388 0.684565,-1.699025 0.8733,-2.586526 0.187136,-0.887502 0.281504,-1.800869 0.281504,-2.736869 0,-1.574548 -0.2911,-3.055334 -0.873301,-4.440742 -0.5822,-1.385409 -1.391523,-2.597843 -2.426368,-3.63407 -1.034846,-1.036227 -2.232835,-1.854216 -3.593969,-2.452351 -1.361133,-0.598134 -2.83103,-0.897201 -4.409689,-0.897201 -1.557866,0 -3.022964,0.299067 -4.393694,0.897201 -1.37073,0.598135 -2.570319,1.416124 -3.595568,2.452351 -1.025248,1.036227 -1.834571,2.248661 -2.426368,3.63407 -0.5917971,1.385408 -0.8876958,2.864578 -0.8876958,4.440742 z m 6.4489903,-0.0065 3.386039,-1.446839 0.319891,-3.718132 2.415172,2.816081 3.58917,-0.840621 -1.903348,3.191127 1.903348,3.189511 -3.58917,-0.840622 -2.415172,2.816081 -0.319891,-3.718132 z"
         id="path1"
         style="stroke-width:1.60799" />
    </mask>
  </defs>
  <sodipodi:namedview
     id="namedview4"
     pagecolor="#ffffff"
     bordercolor="#666666"
     borderopacity="1.0"
     inkscape:showpageshadow="2"
     inkscape:pageopacity="0.0"
     inkscape:pagecheckerboard="0"
     inkscape:deskcolor="#d1d1d1"
     showgrid="false"
     inkscape:zoom="3.05345"
     inkscape:cx="46.504773"
     inkscape:cy="73.85089"
     inkscape:window-width="1512"
     inkscape:window-height="844"
     inkscape:window-x="0"
     inkscape:window-y="38"
     inkscape:window-maximized="0"
     inkscape:current-layer="layer1" />
  <g
     inkscape:groupmode="layer"
     id="layer1"
     inkscape:label="bg"
     style="fill:#000000;fill-opacity:1">
    <rect
       style="fill:url(#linearGradient937);fill-opacity:1;stroke-width:0.313959"
       id="rect875"
       width="28.293753"
       height="41.327"
       x="6.4436221"
       y="-41.327"
       transform="rotate(90)"
       mask="url(#mask1)" />
  </g>
</svg>
